<svg xmlns="http://www.w3.org/2000/svg">
    <symbol id="icon-1" viewBox="0 0 96 96">
        <path d="M63.3008 28.0883C63.0471 26.975 62.354 26.1388 61.4009 25.7936C61.3328 25.7688 61.2613 25.7661 61.1922 25.7467C61.8752 22.6396 63.8011 11.3443 57.4913 4.73394C53.8341 0.9031 48.1275 -0.613029 40.5386 0.223132C40.3991 0.166762 40.2477 0.133879 40.0905 0.129181C34.1295 -0.0634176 29.5678 1.58013 26.5772 5.00757C20.7183 11.7204 22.8397 23.0477 23.4507 25.7327C23.3608 25.7558 23.2684 25.7615 23.1801 25.7936C22.2264 26.1388 21.534 26.975 21.2796 28.0883C21.053 29.0801 21.1792 30.2257 21.6349 31.3132C22.4694 33.3079 24.1578 34.5821 25.7794 34.5821C25.9528 34.5821 26.1254 34.5669 26.2962 34.537C27.6715 38.6092 29.9657 41.9953 33.7564 44.0737V48.2484H31.7872V60.0228H52.7934V48.2484H50.8233V44.0997C54.6209 42.024 56.917 38.6276 58.2914 34.5388C58.4599 34.5678 58.6303 34.5821 58.8017 34.5821C60.4213 34.5821 62.1104 33.3079 62.9461 31.3138C63.4006 30.2257 63.5268 29.0801 63.3008 28.0883ZM23.4414 30.6585C23.1265 29.9057 23.0299 29.1053 23.1763 28.463C23.2925 27.9556 23.55 27.5951 23.8833 27.4741C23.9735 27.4418 24.072 27.426 24.1768 27.426C24.366 27.426 24.5756 27.4791 24.792 27.5783C25.0141 29.3753 25.3296 31.1178 25.7689 32.7726C25.0269 32.7588 23.9881 31.9648 23.4414 30.6585ZM51.9358 50.0522C50.0078 51.9378 46.4148 53.2089 42.2903 53.2089C38.1657 53.2089 34.5727 51.9378 32.6447 50.0522H34.7259C35.2612 50.0522 35.6955 49.6483 35.6955 49.1503V44.9742C37.5847 45.6972 39.7805 46.1487 42.3394 46.269C44.857 46.1499 47.0197 45.705 48.8849 44.995V49.1503C48.8849 49.6483 49.3192 50.0522 49.8545 50.0522H51.9358ZM57.8877 26.6232C57.8239 27.1777 57.7596 27.7318 57.6805 28.2648C57.4787 29.6235 57.2207 30.9063 56.9063 32.1175C56.7876 32.5745 56.6539 33.0134 56.5174 33.4484C55.3289 37.2369 53.457 40.1882 50.5662 42.0757C50.1393 42.3544 49.6771 42.597 49.205 42.8293C47.3051 43.7643 45.0522 44.3383 42.3394 44.4675C39.6327 44.3395 37.3802 43.7764 35.4786 42.8577C34.9738 42.6137 34.4846 42.3538 34.0307 42.0578C31.1337 40.1686 29.2574 37.2224 28.0669 33.4418C27.9299 33.0066 27.7957 32.5674 27.6767 32.1101C27.3619 30.9016 27.1035 29.622 26.9015 28.2668C26.822 27.7335 26.7573 27.1794 26.6933 26.6246C26.5222 25.1402 26.4002 23.5846 26.3259 21.9552C26.5528 20.6323 26.8851 19.5342 27.281 18.6345C27.8775 18.5406 29.1645 18.2816 30.68 17.6322C30.9186 17.9393 31.3251 18.1342 31.7379 18.1049C31.9525 18.0949 34.8093 17.9428 37.8289 16.8407C37.8138 16.9681 37.822 17.099 37.8548 17.2288C37.9842 17.7338 38.4639 18.0943 39.0219 18.1061C39.2813 18.1137 44.4135 18.1724 47.5809 14.8025C48.8029 17.5259 51.5467 21.9868 57.1429 24.7871L57.9772 25.8566C57.9509 26.1171 57.9171 26.3671 57.8877 26.6232ZM61.1383 30.6585C60.5935 31.9624 59.5574 32.7543 58.8172 32.7717C59.2544 31.117 59.5684 29.3745 59.7896 27.5775C60.0056 27.4787 60.2147 27.426 60.4036 27.426C60.5084 27.426 60.6069 27.4418 60.6965 27.4741C61.1535 27.6397 61.3365 28.1647 61.4047 28.463C61.5511 29.1053 61.4539 29.9057 61.1383 30.6585ZM40.0905 33.0066V30.4782C40.0905 29.9803 40.5247 29.5763 41.06 29.5763C41.5953 29.5763 42.0295 29.9803 42.0295 30.4782V32.8023H43.5204C44.0557 32.8023 44.4899 33.2063 44.4899 33.7042C44.4899 34.2022 44.0557 34.6062 43.5204 34.6062H41.8099C40.8618 34.6062 40.0905 33.8886 40.0905 33.0066ZM35.4577 27.2067C35.4577 28.1767 34.6123 28.9631 33.5696 28.9631C32.5269 28.9631 31.6816 28.1767 31.6816 27.2067C31.6816 26.2366 32.5269 25.4503 33.5696 25.4503C34.6123 25.4503 35.4577 26.2366 35.4577 27.2067ZM52.8989 27.2067C52.8989 28.1767 52.0536 28.9631 51.011 28.9631C49.9682 28.9631 49.1229 28.1767 49.1229 27.2067C49.1229 26.2366 49.9682 25.4503 51.011 25.4503C52.0536 25.4503 52.8989 26.2366 52.8989 27.2067ZM47.0362 38.5627C47.0362 40.0189 44.5846 40.538 42.2902 40.538C39.9964 40.538 37.5449 40.0189 37.5449 38.5627C37.5449 38.0647 37.9791 37.6607 38.5144 37.6607C38.9468 37.6607 39.3129 37.9238 39.4378 38.2878C39.7623 38.4664 40.7823 38.7341 42.2902 38.7341C43.7988 38.7341 44.8188 38.4664 45.1432 38.2873C45.2682 37.9238 45.6343 37.6607 46.0667 37.6607C46.6019 37.6607 47.0362 38.0647 47.0362 38.5627ZM95.6736 66.6944C95.3945 66.2372 94.9614 65.898 94.4454 65.7029C94.5264 65.2067 94.4464 64.6847 94.16 64.2153C93.8811 63.7583 93.4482 63.4193 92.9317 63.224C93.0125 62.7278 92.9325 62.2057 92.6464 61.7362C92.3598 61.2666 91.9182 60.9361 91.4181 60.7474C91.4993 60.251 91.4199 59.7288 91.134 59.2594C90.8046 58.7204 90.2706 58.334 89.628 58.1696C88.9918 58.0063 88.3176 58.0838 87.7382 58.3892L86.7556 58.9086C86.5684 58.6241 86.321 58.3671 86.0176 58.1539V57.1678H91.5115C92.0467 57.1678 92.481 56.7638 92.481 56.2653C92.481 55.7674 92.0467 55.3634 91.5115 55.3634H86.0176V54.4615H91.5115C92.0467 54.4615 92.481 54.0575 92.481 53.5595C92.481 53.0616 92.0467 52.6576 91.5115 52.6576H86.0176V51.7557H91.5115C92.0467 51.7557 92.481 51.3517 92.481 50.8538C92.481 50.3558 92.0467 49.9518 91.5115 49.9518H86.0176V49.0499H91.5115C92.0467 49.0499 92.481 48.6459 92.481 48.148C92.481 47.65 92.0467 47.246 91.5115 47.246H86.0176L86.0239 46.3441H91.5115C92.0467 46.3441 92.481 45.9401 92.481 45.4422C92.481 44.9443 92.0467 44.5403 91.5115 44.5403H86.0239C84.9332 44.5403 84.0785 45.4645 84.0785 46.6448V48.148V50.8538V50.99C83.9956 49.9653 83.5876 48.9361 82.8679 48.0499C81.0968 45.8673 78.0632 45.2079 76.109 46.5819C75.0905 47.2976 74.5743 48.4274 74.552 49.6524C73.2796 49.3367 71.9702 49.4894 70.9509 50.2055C69.9688 50.8949 69.3931 52.0135 69.3717 53.2736C69.3527 54.4403 69.7946 55.6411 70.6176 56.6558C71.4407 57.6693 72.5617 58.3939 73.7736 58.6957C74.1788 58.7967 74.5841 58.846 74.9805 58.846C75.8641 58.846 76.6998 58.5994 77.3778 58.1226C77.4421 58.0774 77.488 58.0178 77.5484 57.9693L80.5891 61.3621L79.4904 63.5638C79.4064 63.6989 79.3301 63.8367 79.2623 63.9808L72.8698 67.3544L61.9627 50.6893C61.6951 50.2808 61.3694 49.93 61.0193 49.6082C60.4418 48.915 59.6082 48.4214 58.6416 48.2623C57.6999 47.972 56.6961 47.8794 55.7019 48.0344V60.1216C55.9388 60.1901 56.1581 60.2902 56.3488 60.4233C56.7063 60.6728 56.968 61.024 57.0734 61.4379L57.3178 62.3905L61.8422 80.0293V72.4748L65.4759 78.0272C66.6297 79.79 68.6508 80.7694 70.7262 80.7694C71.7538 80.7694 72.7953 80.5287 73.7509 80.0237L85.3914 73.8793C85.4394 73.854 85.4765 73.8186 85.5236 73.7923C85.6151 73.7975 85.7059 73.8088 85.7979 73.8088C86.5553 73.8088 87.3229 73.6315 88.0273 73.2592L90.2156 72.103L90.3493 72.2521C90.7912 72.7449 91.5707 72.8282 92.1213 72.4415L92.5217 72.1602L92.9438 71.8637L93.3438 71.5827C93.7456 71.3005 93.8984 70.8195 93.7886 70.3551L94.7394 69.8523C95.3176 69.547 95.7329 69.0502 95.9097 68.4525C96.0864 67.8559 96.0018 67.2311 95.6736 66.6944ZM90.0325 62.5287L90.21 62.4349C90.2933 62.3915 90.3867 62.368 90.4801 62.368C90.5294 62.368 90.5786 62.375 90.6278 62.3868C90.7705 62.4232 90.8891 62.5089 90.9611 62.6275C91.1113 62.873 91.0179 63.1877 90.7541 63.3275L90.5773 63.4208L89.2996 64.0962L88.2166 64.6686C88.0891 64.7344 87.9414 64.7508 87.7988 64.7168C87.6574 64.6804 87.5387 64.5946 87.4668 64.476C87.3166 64.2294 87.4087 63.9158 87.6726 63.7761L88.6721 63.2478L90.0325 62.5287ZM86.9199 61.1245L86.9442 61.0762C86.9621 61.0402 86.9682 61.0022 86.9838 60.9658C87.0019 60.9236 87.0148 60.8806 87.0298 60.8379L88.24 60.1982L88.6964 59.957C88.7809 59.9135 88.8731 59.89 88.9678 59.89C89.017 59.89 89.0662 59.8959 89.1142 59.9088C89.2569 59.9452 89.3755 60.031 89.4475 60.1496C89.5411 60.3024 89.5309 60.4782 89.4532 60.6258C89.4061 60.7153 89.34 60.7968 89.2404 60.8495L88.544 61.2176L87.5563 61.7396L86.703 62.1907C86.5975 62.2461 86.4785 62.2581 86.3591 62.2437L86.9199 61.1245ZM75.82 56.2037C75.3516 56.5301 74.7558 56.4509 74.4414 56.3722C73.7926 56.2107 73.1513 55.7856 72.6804 55.206C72.2108 54.6265 71.9469 53.9359 71.957 53.3112C71.9621 53.0093 72.0404 52.4533 72.5087 52.1244C72.7435 51.96 73.0326 51.8819 73.3457 51.8819C74.1056 51.8819 75.012 52.3394 75.647 53.1221C76.5446 54.2278 76.6228 55.6388 75.82 56.2037ZM77.8385 51.5825C76.9422 50.4774 76.8627 49.0658 77.6668 48.5009C77.9016 48.3365 78.1895 48.2584 78.5038 48.2584C79.2638 48.2584 80.1689 48.7164 80.8051 49.4991C81.276 50.0787 81.5399 50.7692 81.5298 51.3934C81.5247 51.6958 81.4464 52.2513 80.9781 52.5801C80.5097 52.9066 79.9139 52.8273 79.5996 52.7486C78.9507 52.5871 78.3094 52.162 77.8385 51.5825ZM80.3349 58.8286C79.8927 58.2838 80.009 57.5086 80.5946 57.0972C81.1802 56.6859 82.0135 56.794 82.4557 57.3388C82.6103 57.5293 82.673 57.7484 82.6949 57.9698C82.3315 58.189 82.0261 58.485 81.8353 58.8648L81.6244 59.2874C81.149 59.3647 80.6458 59.2116 80.3349 58.8286ZM87.956 71.2217L87.0691 71.6903C85.8307 72.3479 84.2439 71.9404 83.537 70.786L81.1409 66.8635C80.7991 66.3037 80.7119 65.6537 80.8958 65.0327L80.9066 65.011L81.2249 64.3731L83.5938 59.6246C83.6619 59.489 83.8482 59.4005 84.0785 59.3802C84.249 59.3652 84.4411 59.3832 84.6403 59.4696C84.8399 59.5562 84.9785 59.6817 85.0757 59.8131C85.0977 59.8428 85.1236 59.8705 85.1402 59.9007C85.2221 60.0502 85.2417 60.2019 85.1856 60.3152L83.2016 64.277L82.806 65.0667C82.7682 65.1423 82.7597 65.2214 82.7456 65.2998C82.6752 65.6895 82.871 66.0896 83.2756 66.2646C83.4082 66.3222 83.5471 66.3492 83.6834 66.3492C83.8217 66.3492 83.954 66.3136 84.0785 66.2617V70.5464C84.0785 71.0443 84.5128 71.4483 85.048 71.4483C85.5833 71.4483 86.0176 71.0443 86.0176 70.5464V67.4189L88.3565 70.0286L88.9536 70.6949L87.956 71.2217ZM89.7303 67.1466C89.6015 67.2123 89.4513 67.2323 89.3124 67.1947C89.171 67.1583 89.0524 67.0726 88.9804 66.954C88.8302 66.7073 88.9223 66.3938 89.1862 66.254L90.4153 65.6044L91.5459 65.0068L91.7236 64.9129C91.8069 64.8694 91.9003 64.8459 91.9937 64.8459C92.043 64.8459 92.0922 64.853 92.1414 64.8647C92.2828 64.9011 92.4015 64.9869 92.4734 65.1055C92.6237 65.3521 92.5315 65.6657 92.2677 65.8054L92.0908 65.8989L91.0429 66.4527L89.7303 67.1466ZM94.0401 67.9745C94.0009 68.106 93.9088 68.2164 93.7813 68.2834C93.7813 68.2834 93.7813 68.2834 93.78 68.2834L93.3254 68.5239L92.7862 68.8092L91.2451 69.6245C91.1299 69.6865 91.0016 69.6974 90.8798 69.6774C90.7227 69.6517 90.5774 69.5702 90.4927 69.4319C90.3425 69.1853 90.4359 68.8717 90.6998 68.732L92.1586 67.9609L92.5518 67.7531L93.2372 67.3908C93.3205 67.3474 93.4139 67.3239 93.5073 67.3239C93.5221 67.3239 93.5364 67.3284 93.5512 67.3295C93.5856 67.3323 93.6202 67.3345 93.6538 67.3427C93.7964 67.3791 93.9138 67.4648 93.9883 67.5858C94.0603 67.7044 94.0792 67.8418 94.0401 67.9745ZM61.6529 94.0844L61.1131 82.4018C61.1106 82.3713 61.1068 82.3407 61.0979 82.3102L55.8161 61.7162C55.7966 61.639 55.7554 61.5693 55.7019 61.5063C55.5579 61.3364 55.3082 61.2253 55.0284 61.2253H29.552C29.2721 61.2253 29.0227 61.337 28.8786 61.5064C28.8252 61.5692 28.7839 61.6385 28.7643 61.715L24.1254 79.8044L23.5395 79.4972L23.4036 79.4259C23.2518 79.3484 23.099 79.285 22.9463 79.2208L27.2628 62.3889L27.4438 61.6833L27.507 61.4367C27.6127 61.0229 27.8746 60.672 28.2322 60.4228C28.4228 60.2899 28.642 60.1899 28.8786 60.1216V48.1987V48.0783C26.6167 47.3969 24.036 47.9736 22.3697 49.7422L1.52504 71.8394C0.368688 73.0655 -0.169091 74.692 0.0467785 76.3103C0.262648 77.9298 1.2126 79.3848 2.65614 80.3102L14.6135 87.9766C14.9867 88.216 15.3825 88.3961 15.7856 88.5491C16.2751 89.072 16.858 89.5187 17.5151 89.8592L21.7283 92.0426L22.36 92.3701L22.7383 92.5661L22.9605 92.6812C22.9713 92.6868 22.9832 92.6883 22.9941 92.6937L22.9286 94.0857L22.8677 95.3788C22.8595 95.5549 22.9535 95.6853 23.0343 95.764C23.1883 95.9143 23.42 96 23.6687 96H60.9111C61.1598 96 61.3921 95.9143 61.5461 95.764C61.6269 95.6853 61.7216 95.5549 61.7127 95.3788L61.6529 94.0844ZM15.3085 74.5475L22.7384 66.6713V79.1319C22.4943 79.0387 22.25 78.9659 22.0058 78.9045C21.863 78.7939 21.738 78.6698 21.5819 78.5698L15.3085 74.5475ZM29.8582 85.2297C29.7704 85.3765 29.5634 85.4317 29.4094 85.3495C29.4088 85.3495 29.4088 85.3495 29.4088 85.3495L25.0017 83.0653C24.7573 82.9389 24.4696 82.9466 24.2112 83.04C23.9751 83.1253 23.7631 83.2813 23.6384 83.4881C23.5121 83.6972 23.4806 83.9438 23.5506 84.1751C23.6207 84.4053 23.7867 84.6003 24.0114 84.7177L24.0151 84.7196L29.2907 87.4552C29.393 87.508 29.4321 87.5938 29.446 87.6396C29.4605 87.6854 29.4757 87.777 29.4176 87.8733C29.3614 87.9684 29.2699 88.0036 29.22 88.0177C29.1702 88.0306 29.0704 88.0447 28.9694 87.9919L23.8142 85.3188L23.6901 85.2544C23.5834 85.1991 23.4665 85.1747 23.3486 85.1656C23.1372 85.1494 22.9275 85.2102 22.7384 85.3138C22.7208 85.3234 22.7025 85.331 22.6856 85.3414C22.5411 85.4303 22.4104 85.5379 22.3255 85.6783C22.1999 85.8874 22.1683 86.1352 22.2384 86.3654C22.2983 86.5624 22.4388 86.7237 22.6161 86.8421C22.6459 86.8621 22.6668 86.8912 22.6991 86.9079L22.7384 86.9283L22.7842 86.952L23.253 87.195L27.1062 89.1921C27.209 89.2449 27.2482 89.3307 27.2621 89.3777C27.2766 89.4235 27.2917 89.5139 27.2337 89.6102C27.1768 89.7053 27.086 89.7417 27.0361 89.7546C26.9875 89.7675 26.889 89.7828 26.7855 89.7288L23.2207 87.8816L22.7384 87.6317L22.5832 87.5513L22.3154 87.4125L21.9514 87.2239L21.8855 87.1898C21.5781 87.0312 21.1085 87.0923 20.8087 87.2661C20.5177 87.4352 20.3448 87.7347 20.353 88.0529C20.3576 88.2213 20.4176 88.378 20.5122 88.5149C20.5971 88.6377 20.7089 88.7453 20.8504 88.8186L21.8535 89.3386L22.4852 89.6661L22.7384 89.7973L23.1212 89.9957L24.226 90.5685C24.3276 90.6213 24.3661 90.7071 24.3806 90.7529C24.3945 90.7987 24.4097 90.8903 24.3529 90.9854C24.2658 91.131 24.0575 91.1886 23.9041 91.1052L23.0888 90.6826L22.7384 90.501L22.4534 90.3533L21.8217 90.0258L19.5137 88.8296L18.4594 88.2831C17.5568 87.8157 16.8461 87.0676 16.4585 86.1763C15.9333 84.9714 15.9927 83.6537 16.6163 82.652C17.3756 81.4329 18.8369 80.5322 20.4628 80.5322C21.1218 80.5322 21.8081 80.6845 22.4853 81.0185C22.5048 81.0282 22.5244 81.0343 22.5439 81.0442L22.7384 81.1462L23.0718 81.3211L23.6576 81.6283L24.0054 81.8107L29.7294 84.8128C29.8323 84.8657 29.8714 84.9526 29.8853 84.9984C29.8998 85.0442 29.915 85.1358 29.8582 85.2297ZM53.8282 80.7574C53.8005 82.3419 52.1572 83.0335 51.3193 81.8099L50.4765 80.5807C50.2523 81.31 49.9112 81.9949 49.4697 82.6189C49.4732 82.7158 49.4835 82.8108 49.4835 82.9086C49.4835 86.997 46.2633 90.3117 42.2903 90.3117C38.3172 90.3117 35.0969 86.997 35.0969 82.9086C35.0969 82.8108 35.1073 82.7158 35.1108 82.6189C34.6687 81.9949 34.3275 81.31 34.1034 80.5807L33.2613 81.8099C32.4233 83.0335 30.78 82.3419 30.7516 80.7574C30.7384 80.0174 30.7101 79.2493 30.6575 78.4964C30.4741 75.8521 34.3434 74.6124 36.0871 74.1882C37.6384 73.1512 39.8394 72.6845 42.2903 72.6845C44.7404 72.6845 46.9421 73.1512 48.4934 74.1882C50.2371 74.6124 54.1063 75.8521 53.923 78.4964C53.8704 79.2493 53.842 80.0174 53.8282 80.7574ZM39.3425 86.2484C39.3425 85.1345 40.6623 84.2314 42.2903 84.2314C43.9183 84.2314 45.238 85.1345 45.238 86.2484C45.238 87.3622 43.9183 88.2652 42.2903 88.2652C40.6623 88.2652 39.3425 87.3622 39.3425 86.2484Z" fill="#181817"/>
    </symbol>
    <symbol id="icon-2" viewBox="0 0 96 96">
        <path d="M67.2448 57.3904C64.9996 56.9476 62.7787 58.4128 61.8405 60.9534C61.6586 61.4462 61.5349 61.9569 61.4637 62.4731C63.7808 61.0882 65.8061 59.4188 67.5545 57.4514L67.2448 57.3904Z" fill="#181817"/>
<path d="M69.3279 32.7792C73.5375 29.4196 74.7297 22.5108 71.9909 17.348C69.252 12.1852 63.6192 10.7235 59.4095 14.0831C55.1999 17.4427 54.0077 24.3515 56.7465 29.5143C59.4854 34.6771 65.1182 36.1389 69.3279 32.7792Z" fill="#181817"/>
<path d="M86.0195 35.595C82.0866 29.6218 76.7449 29.5534 73.7943 31.9899C70.8445 34.4249 71.06 40.6117 73.5235 44.7657C73.6355 44.9948 73.7543 45.2333 73.8707 45.4693C74.7196 42.3099 74.8393 40.0167 74.8405 39.985C74.927 37.3046 76.6996 35.2122 78.8769 35.2122C78.9274 35.2122 78.978 35.2132 79.0285 35.2157C81.2559 35.3159 83.0014 37.6199 82.9193 40.3524V40.3608L82.9169 40.405C82.8506 41.9351 82.4237 47.4353 79.7161 53.9717C79.4695 54.5716 79.1789 55.2291 78.8454 55.9252C79.4129 57.255 79.9587 58.6136 80.4563 59.9935L77.0085 59.3142C74.6764 63.1459 71.1089 67.4928 65.7959 70.8986L81.2102 86.5477C82.1529 87.5052 83.2945 87.9717 84.4296 87.9717C85.8829 87.9717 87.3252 87.2062 88.3249 85.7262C90.1036 83.0889 89.8041 79.1823 87.6543 77.0002L83.9477 73.2354L85.1467 73.4724C85.5182 73.5453 85.8857 73.5631 86.2467 73.5373C87.1174 73.5884 88.1414 73.2151 89.4006 72.6771C92.8989 71.1817 96.865 68.5454 95.8338 60.5116C93.7531 49.7195 91.3867 43.8475 86.0195 35.595Z" fill="#181817"/>
<path d="M78.9959 53.5215C81.9064 46.4957 82.0944 40.6807 82.1118 40.3152C82.1773 38.1257 80.7847 36.2862 78.9995 36.2064C77.2172 36.125 75.7195 37.8292 75.6495 40.0138L75.6491 40.0133C75.6439 40.2657 75.3742 45.0479 73.0122 50.437C70.6252 55.834 66.3337 61.8979 57.6461 65.4456C55.9499 66.1318 55.0282 68.3744 55.5889 70.4553C56.0372 72.1223 57.3017 73.1794 58.6595 73.1794C58.9954 73.1794 59.337 73.1145 59.6734 72.9786C70.2953 68.715 76.1128 60.5374 78.9959 53.5215Z" fill="#181817"/>
<path d="M36.4025 72.3881C37.8723 72.7302 39.6413 73.2954 40.109 73.9028C41.3682 75.5326 41.9835 78.8987 43.6162 79.1347C44.757 79.2993 45.1576 79.2691 46.5709 78.1505C47.9659 77.0438 46.6412 72.7351 46.3081 71.0796C45.8359 68.7304 46.9618 66.1501 46.9791 65.9924C46.9933 65.8615 47.9631 63.3671 50.7665 64.3141C51.7456 64.6473 51.1724 62.4275 49.6391 61.3183C47.8159 60.0014 46.4969 60.6152 45.1641 61.8974C42.5907 59.4818 38.5591 59.9533 36.2671 61.0054C35.9008 62.8365 35.7589 64.6081 35.7589 66.2379C35.7577 68.7155 36.0811 70.8639 36.4025 72.3881ZM42.9367 67.1765C43.5358 66.6752 44.3532 66.8651 44.7623 67.5999C45.1706 68.3352 45.0157 69.3383 44.4166 69.8385C43.8159 70.3398 42.9994 70.1504 42.5903 69.4151C42.1824 68.6803 42.3364 67.6772 42.9367 67.1765Z" fill="#181817"/>
<path d="M34.615 60.9494C34.0183 60.9598 33.4499 60.9385 32.9078 60.8869C32.7178 60.8289 32.5214 60.7927 32.3156 60.8056C32.3031 60.8066 32.2918 60.8116 32.2792 60.8125C24.033 59.6637 21.7883 52.0127 12.1543 59.9528C9.24453 58.9041 5.7753 56.6496 3.1477 51.8386C2.61652 50.8713 1.5473 50.6179 0.761039 51.2694C-0.02926 51.9195 -0.23785 53.2299 0.295349 54.1978C2.7948 58.7276 5.88363 61.3813 8.78207 62.9357C8.74811 63.0229 8.71254 63.1265 8.67697 63.2257C7.93397 64.5967 7.35226 66.4029 6.97388 68.8102C6.92093 69.1617 4.56175 87.6281 8.26706 87.6281C11.9724 87.6281 12.9899 73.6588 15.0588 71.8704C15.3502 71.9021 20.8468 78.9661 25.5417 78.0781C26.6416 77.8689 28.1309 77.0359 29.3719 76.1498L31.4028 86.1218C31.6308 87.2409 32.4462 88 33.3606 88C33.4604 88 33.5619 87.9911 33.6634 87.9722C34.6946 87.7823 35.4372 86.6687 35.3826 85.391L34.8555 72.9746C34.5005 71.318 34.1424 68.9758 34.1408 66.2378C34.1412 64.5922 34.2734 62.8063 34.615 60.9494Z" fill="#181817"/>
<path d="M52.6512 85.3369H52.141L51.0997 81.3793H39.4336L38.3922 85.3369H37.8812C37.4705 85.3369 37.1366 85.746 37.1366 86.2507C37.1366 86.755 37.4705 87.164 37.8812 87.164H52.6512C53.0619 87.164 53.3958 86.755 53.3958 86.2507C53.3958 85.746 53.0615 85.3369 52.6512 85.3369Z" fill="#181817"/>


    </symbol>

     <symbol id="icon-3" viewBox="0 0 96 96">
        <path d="M18.6928 76.7857L22.1538 65.1513L20.8953 61.7207C18.2208 61.2732 16.0183 59.9308 14.6024 58.1408L9.88269 73.8025L0.600655 89.4642C-0.657925 91.5524 0.128688 94.2372 2.3312 95.4305C4.53372 96.6238 7.36553 95.878 8.62411 93.7898L18.3781 77.6806C18.5354 77.3823 18.6928 77.084 18.6928 76.7857Z" fill="#181817"/>
<path d="M3.27133 44.2928C4.71939 45.0522 6.65014 44.4447 7.45462 42.9259L14.6949 28.9534L15.9821 28.0421L16.6257 24.2452C16.9475 22.2708 17.9128 20.4483 19.2 18.9296L10.5116 24.2452C10.0289 24.549 9.70716 25.0046 9.38537 25.4602L1.82327 40.1922C1.01879 41.7109 1.66237 43.5334 3.27133 44.2928Z" fill="#181817"/>
<path d="M31.0154 16.2254C35.9095 16.2254 39.8769 12.5932 39.8769 8.11268C39.8769 3.63217 35.9095 0 31.0154 0C26.1213 0 22.1538 3.63217 22.1538 8.11268C22.1538 12.5932 26.1213 16.2254 31.0154 16.2254Z" fill="#181817"/>
<path d="M86.9077 76.7716C86.9077 76.7716 87.0646 76.921 87.0646 77.0704C88.32 76.3233 88.7908 74.6798 88.7908 74.6798C93.4985 76.0245 94.4401 71.8409 94.4401 71.8409C95.0678 70.6456 91.9293 69.4503 91.9293 69.4503C91.7724 66.462 88.1631 65.5655 88.1631 65.5655C86.437 64.0713 86.9077 65.5655 86.9077 65.5655C85.1816 65.4161 84.0831 66.0137 84.0831 66.0137C81.2585 63.4737 79.5323 67.3585 79.5323 67.3585C79.0615 67.3585 78.7477 67.5079 78.2769 67.5079C81.1015 71.0938 84.0831 74.2315 86.9077 76.7716Z" fill="#181817"/>
<path d="M91.2856 86.3458C90.4707 85.5893 84.6034 82.2607 84.6034 82.2607C85.9072 81.6555 86.0702 79.0834 86.0702 78.1756C82.9735 75.4522 79.7139 71.9723 76.4542 68.0385C74.8244 68.3411 64.0676 72.5775 53.6367 68.1898C49.7251 66.5255 46.3025 68.9463 46.3025 68.9463C43.3688 72.1236 44.6727 77.2678 44.6727 77.2678L48.7472 73.1827C50.866 71.6697 51.6809 71.9723 52.1699 72.7288C52.4958 73.334 52.3329 74.0905 51.8439 74.6957C47.9323 78.4782 49.2362 82.412 49.2362 82.412L43.6948 86.951C41.576 89.0692 44.0208 90.7335 44.0208 90.7335C44.5097 89.0692 48.4213 86.4971 48.4213 86.4971C48.2583 88.464 49.2362 88.9179 49.2362 88.9179C52.0069 88.1614 51.355 85.5893 51.355 85.5893C55.7555 85.438 56.2444 83.6224 56.2444 83.6224C60.645 84.3789 62.7637 81.6555 62.7637 81.6555C63.9046 83.6224 73.8465 85.7406 73.8465 85.7406C74.4985 86.0432 78.2471 93.003 78.2471 93.003C79.062 93.1543 79.8769 94.2134 79.8769 94.2134C81.6697 95.2725 85.4183 94.0621 85.4183 94.0621C85.0923 92.7004 83.1365 92.7004 83.1365 92.7004C78.736 92.7004 79.3879 85.8919 79.3879 85.8919C79.5509 84.9841 82.9735 86.6484 82.9735 86.6484L90.4707 89.2205C94.2193 91.0361 95.8492 88.9179 95.8492 88.9179C96.99 87.2536 91.2856 86.3458 91.2856 86.3458Z" fill="#181817"/>
<path d="M54.6461 33.0415C58.3688 40.5747 66.2997 55.4934 76.4965 67.6056C76.9821 67.4579 77.6295 67.4579 78.2769 67.3102C78.1151 67.1625 77.9532 67.0148 77.7914 66.7194C67.5945 54.7549 59.6636 39.8362 56.1028 32.4507C55.4554 32.8938 54.808 33.0415 54.6461 33.0415Z" fill="#181817"/>
<path d="M55.4412 31.3007C57.0701 30.702 58.0475 29.0555 57.3959 27.5587C56.7443 26.0619 54.9525 25.1638 53.3236 25.7626L44.5273 28.6065C34.265 19.7753 33.7763 18.2785 29.704 17.6798C24.4914 16.9314 19.6045 20.3741 18.7901 25.1638L14.8806 50.3101C14.0661 55.0999 17.8127 59.5903 23.0253 60.3387C23.1882 60.3387 23.3511 60.3387 23.514 60.3387L27.7492 72.0138L19.1159 83.6888C17.6498 85.6347 18.1385 88.4786 20.419 89.8257C22.5366 91.1728 25.6316 90.7238 27.0977 88.6283L37.1971 75.157C38.0115 73.9596 38.3373 72.6125 37.8486 71.2654L32.4731 56.447C33.2876 55.3993 33.9392 54.0521 34.1021 52.705L37.6857 30.4026L41.7581 33.995C42.5726 34.7434 43.8757 35.0427 45.016 34.5937L55.4412 31.3007Z" fill="#181817"/>

    </symbol>
     

    <symbol id="icon-4" viewBox="0 0 41 16">
        <path d="M40.7071 8.70711C41.0976 8.31658 41.0976 7.68342 40.7071 7.29289L34.3431 0.928932C33.9526 0.538408 33.3195 0.538408 32.9289 0.928932C32.5384 1.31946 32.5384 1.95262 32.9289 2.34315L38.5858 8L32.9289 13.6569C32.5384 14.0474 32.5384 14.6805 32.9289 15.0711C33.3195 15.4616 33.9526 15.4616 34.3431 15.0711L40.7071 8.70711ZM0 9H40V7H0V9Z" fill="#FF9F0E"/>
    </symbol>
     <symbol id="icon-5" viewBox="0 0 96 96">
        <path d="M68.3162 36.7568C67.7176 35.3668 66.6701 33.668 64.5751 32.278C63.378 31.5058 58.7391 30.8881 58.5895 35.2124C58.5895 35.2124 56.6441 35.5213 56.7938 36.9112C56.7938 36.9112 55.5966 41.0811 61.283 40.6178C61.283 40.6178 62.3305 48.4942 63.2283 50.1931C63.2283 50.1931 63.6773 51.7375 63.8269 53.2819H66.2212L66.3708 50.1931C66.3708 50.1931 67.7176 51.1197 68.7651 53.2819H72.2068C72.0572 52.0464 71.9076 50.9653 71.6083 50.1931C71.6083 50.1931 76.6961 50.1931 78.4918 47.8765C78.4918 47.8765 79.9882 50.8109 81.7839 50.9653V53.4363H84.1782C84.3278 52.973 84.3278 52.5097 84.4774 51.7375C84.4774 51.7375 85.3753 52.2008 85.8242 53.4363H87.9192C87.6199 52.3553 84.9264 42.3166 84.0285 41.5444C84.0285 41.5444 85.3753 41.39 85.8242 43.0888C85.8242 43.0888 86.5724 46.641 88.0688 46.4865C88.0688 46.4865 89.1163 44.1699 87.3206 41.2356C87.3206 41.2356 86.5724 39.0734 82.6817 39.3823L71.4586 39.0734C69.9622 38.7645 68.9147 37.8379 68.3162 36.7568Z" fill="#181817"/>
<path d="M54.6989 24.8647C55.5967 23.6292 55.4471 21.7759 54.2499 20.6948C53.0528 19.7682 51.2571 19.9226 50.2096 21.1581C47.3664 24.8647 42.2786 25.4824 38.6872 23.938L36.7419 29.4979C42.8772 31.9689 50.3593 30.7334 54.6989 24.8647Z" fill="#181817"/>
<path d="M29.2598 15.1351C33.3094 15.1351 36.5922 11.747 36.5922 7.56757C36.5922 3.38812 33.3094 0 29.2598 0C25.2102 0 21.9273 3.38812 21.9273 7.56757C21.9273 11.747 25.2102 15.1351 29.2598 15.1351Z" fill="#181817"/>
<path d="M33.5994 54.9806L27.3144 52.3552L31.0555 41.3899C22.6755 36.6023 19.6827 29.0347 19.533 28.5714C18.6352 26.2548 19.6827 23.7837 21.9273 22.8571C24.1719 21.9304 26.5662 23.0115 27.4641 25.3281C27.6137 25.637 29.4094 29.6525 34.0483 32.8957L36.8915 24.8648C37.1908 23.9382 37.0411 23.0115 36.4425 22.2393C31.0555 16.0617 24.7705 13.7451 17.887 15.9073C15.9417 16.525 14.5949 18.0694 14.146 20.0772L8.16029 52.2007C8.16029 52.3552 8.16029 52.3552 8.16029 52.5096C8.16029 52.664 8.16029 52.9729 8.16029 53.1274L8.45957 67.7992L5.16746 67.027C2.92283 66.5637 0.528568 68.1081 0.0796431 70.4247C-0.369282 72.7413 1.12713 75.2123 3.37176 75.6756L11.9013 77.5289C13.2481 77.8378 14.4452 77.5289 15.4927 76.6023C16.5402 75.6756 17.1388 74.4401 16.9891 73.0501L16.6899 57.6061L27.6137 62.0849V75.5212C27.6137 77.9922 29.559 80 31.9533 80C34.3476 80 36.2929 77.9922 36.2929 75.5212V59.1505C36.4425 57.2972 35.2454 55.7528 33.5994 54.9806Z" fill="#181817"/>
<path d="M45.1217 38.1467C30.9058 37.0656 26.4165 26.4093 26.2669 25.9459C25.6683 24.4015 24.0223 23.7838 22.5259 24.4015C21.0295 25.0193 20.4309 26.7181 21.0295 28.2625C21.3287 28.8803 27.0151 42.7799 44.8225 44.1699C46.4685 44.3243 47.8153 43.0888 47.8153 41.39C47.8153 39.6911 46.7678 38.3011 45.1217 38.1467Z" fill="#181817"/>
<path d="M70.7104 18.0695C67.7176 18.6873 65.473 21.4672 65.473 24.7104H78.7911C78.7911 21.1583 76.2472 18.3784 72.955 17.9151C68.4658 12.8185 61.283 14.8263 55.5966 19.9228C55.8959 20.2317 56.1952 20.695 56.4945 21.1583C60.5348 17.2973 66.0715 14.6718 70.7104 18.0695Z" fill="#181817"/>
<path d="M93.4561 54.6718H51.4068C50.2097 54.6718 49.1622 55.7529 49.1622 56.9884C49.1622 58.2239 50.2097 59.305 51.4068 59.305H51.8557V63.166C51.8557 69.1892 56.6442 74.1313 62.4803 74.1313H82.6819C88.5179 74.1313 93.3064 69.1892 93.3064 63.166V59.305H93.7554C94.9525 59.305 96 58.2239 96 56.9884C95.7007 55.5984 94.6532 54.6718 93.4561 54.6718Z" fill="#181817"/>
<path d="M66.6701 27.7992L66.8197 26.4092C66.8197 25.9459 66.6701 25.637 66.2212 25.637C65.7723 25.637 65.473 25.7915 65.473 26.2548L65.3233 27.6448C65.3233 28.1081 65.473 28.417 65.9219 28.417C66.2212 28.417 66.5205 28.1081 66.6701 27.7992Z" fill="#181817"/>
<path d="M64.8744 29.6525L64.7248 31.0425C64.7248 31.5058 64.8744 31.8147 65.3234 31.8147C65.7723 31.8147 66.0716 31.6602 66.0716 31.1969L66.2212 29.807C66.2212 29.3436 66.0716 29.0348 65.6226 29.0348C65.3234 29.0348 65.0241 29.3436 64.8744 29.6525Z" fill="#181817"/>
<path d="M69.9621 28.417C70.411 28.417 70.7103 28.1081 70.7103 27.6448V26.1003C70.7103 25.637 70.411 25.3281 69.9621 25.3281C69.5132 25.3281 69.2139 25.637 69.2139 26.1003V27.6448C69.2139 27.9536 69.6628 28.417 69.9621 28.417Z" fill="#181817"/>
<path d="M69.0644 31.1968C69.0644 31.6601 69.3636 31.969 69.8126 31.969C70.2615 31.969 70.5608 31.6601 70.5608 31.1968V29.6524C70.5608 29.1891 70.2615 28.8802 69.8126 28.8802C69.3636 28.8802 69.0644 29.1891 69.0644 29.6524V31.1968Z" fill="#181817"/>
<path d="M74.0026 25.4827C73.5537 25.4827 73.2544 25.7916 73.2544 26.2549V27.7993C73.2544 28.2626 73.5537 28.5715 74.0026 28.5715C74.4515 28.5715 74.7508 28.2626 74.7508 27.7993V26.2549C74.7508 25.7916 74.4515 25.4827 74.0026 25.4827Z" fill="#181817"/>
<path d="M73.5537 29.807V31.3514C73.5537 31.8147 73.853 32.1236 74.3019 32.1236C74.7509 32.1236 75.0501 31.8147 75.0501 31.3514V29.807C75.0501 29.3436 74.7509 29.0348 74.3019 29.0348C73.7034 29.0348 73.4041 29.3436 73.5537 29.807Z" fill="#181817"/>
<path d="M77.8932 25.4827C77.4443 25.4827 77.2946 25.946 77.2946 26.2549L77.4443 27.6448C77.4443 27.9537 77.7435 28.2626 78.1925 28.2626C78.6414 28.2626 78.9407 27.7993 78.9407 27.3359L78.6414 26.1004C78.6414 25.6371 78.1925 25.3282 77.8932 25.4827Z" fill="#181817"/>
<path d="M77.7438 29.9614L77.8934 31.3514C77.8934 31.6602 78.3423 31.9691 78.6416 31.9691C79.0905 31.9691 79.3898 31.5058 79.2402 31.1969V29.6525C79.2402 29.1892 78.7913 29.0348 78.492 29.0348C78.0431 29.1892 77.7438 29.4981 77.7438 29.9614Z" fill="#181817"/>

    </symbol>
    <symbol id="icon-" viewBox="0 0 96 96">
        <!-- Ваш SVG код для другого символу -->
    </symbol>
     <symbol id="icon-" viewBox="0 0 96 96">
        <!-- Ваш SVG код для другого символу -->
    </symbol>

    <symbol id="icon-" viewBox="0 0 96 96">
        <!-- Ваш SVG код для другого символу -->
    </symbol>
    <symbol id="icon-" viewBox="0 0 96 96">
        <!-- Ваш SVG код для другого символу -->
    </symbol>
     <symbol id="icon-" viewBox="0 0 96 96">
        <!-- Ваш SVG код для другого символу -->
    </symbol>
    <!-- і так далі -->
</svg>