<svg width="201" height="156" viewBox="0 0 201 156" fill="none" xmlns="http://www.w3.org/2000/svg">
<g clip-path="url(#clip0_127_352)">
<path d="M40.7528 122.596C47.0001 81.5655 80.324 48.4834 115.046 48.5349C115.249 49.5826 116.187 50.5542 115.858 51.5694C110.262 68.8275 118.097 82.3649 130.194 94.2337C139.504 103.603 149.952 111.24 162.803 115.131C166.482 116.132 169.613 117.537 173.605 117.781C188.226 118.933 196.58 110.537 195.85 96.2566C195.369 86.6506 190.357 79.0302 184.396 71.6775C174.225 58.8911 160.941 49.0744 145.32 42.4255C142.19 41.1989 139.069 39.6166 134.64 37.7929C149.8 21.3781 170.444 17.8972 190.077 11.3324C186.618 11.121 183.639 10.4213 180.148 10.7256C162.081 13.5038 144.593 19.4902 131.031 31.6027C127.085 34.985 123.614 37.1191 117.759 36.7612C95.1229 35.6366 76.474 43.8008 60.5781 59.1353C48.6601 70.5718 39.4776 84.1043 33.2095 99.2508C31.6424 103.037 30.1698 106.783 27.3965 112.825C20.1062 100.991 13.7497 90.9826 7.42929 80.7609C6.61515 80.97 6.19691 81.4218 5.38277 81.6308C4.99057 83.6775 3.27768 86.6551 3.96573 88.5089C7.15564 97.504 10.5682 106.24 14.3062 115.01C17.8253 122.99 22.3022 130.618 25.8213 138.598C29.3562 146.32 33.1135 148.24 38.5481 142.36C47.9764 132.325 56.6943 122.024 65.3715 111.166C66.5306 109.684 65.9199 106.564 65.7956 104.227C63.1028 104.58 59.422 104.275 57.7307 105.724C51.7954 111.056 47.0173 116.249 40.7528 122.596ZM126.03 48.2112C151.842 54.1888 171.576 67.2803 183.245 90.5114C185.607 95.5734 187.363 101.805 182.336 105.38C178.985 107.764 172.745 108.297 168.253 107.504C151.112 103.868 138.468 93.4925 128.063 80.1741C120.897 70.6772 118.588 60.6977 126.03 48.2112Z" fill="#FFAA00"/>
</g>
<defs>
<clipPath id="clip0_127_352">
<rect width="192" height="144" fill="white" transform="matrix(-0.998138 -0.0610034 -0.0610034 0.998138 201 12)"/>
</clipPath>
</defs>
</svg>
