<svg width="44" height="44" viewBox="0 0 44 44" fill="none" xmlns="http://www.w3.org/2000/svg">
<g filter="url(#filter0_b_129_438)">
<circle cx="22" cy="22" r="22" transform="matrix(-1 0 0 1 44 0)" fill="#839AA9"/>
</g>
<path d="M14.293 22.7071C13.9024 22.3166 13.9024 21.6834 14.293 21.2929L20.6569 14.9289C21.0474 14.5384 21.6806 14.5384 22.0711 14.9289C22.4617 15.3195 22.4617 15.9526 22.0711 16.3431L16.4143 22L22.0711 27.6569C22.4617 28.0474 22.4617 28.6805 22.0711 29.0711C21.6806 29.4616 21.0474 29.4616 20.6569 29.0711L14.293 22.7071ZM31.0001 23L15.0001 23L15.0001 21L31.0001 21L31.0001 23Z" fill="white"/>
<defs>
<filter id="filter0_b_129_438" x="-15.3645" y="-15.3645" width="74.7291" height="74.7291" filterUnits="userSpaceOnUse" color-interpolation-filters="sRGB">
<feFlood flood-opacity="0" result="BackgroundImageFix"/>
<feGaussianBlur in="BackgroundImageFix" stdDeviation="7.68227"/>
<feComposite in2="SourceAlpha" operator="in" result="effect1_backgroundBlur_129_438"/>
<feBlend mode="normal" in="SourceGraphic" in2="effect1_backgroundBlur_129_438" result="shape"/>
</filter>
</defs>
</svg>
