<svg width="80" height="75" viewBox="0 0 80 75" fill="none" xmlns="http://www.w3.org/2000/svg">
<path d="M66.6957 18.4966C64.3065 12.8165 58.5073 9.80213 53.7878 11.7873C49.6272 13.5374 47.6579 18.412 48.8311 23.4601L23.7433 34.0127C20.9555 29.6438 16.094 27.6424 11.9334 29.3925C7.21389 31.3777 5.31289 37.6309 7.70212 43.311C8.73955 45.7774 10.3972 47.807 12.4558 49.0522C11.9376 51.4692 12.1976 53.9986 13.2351 56.465C15.6243 62.1451 21.4235 65.1594 26.143 63.1743C30.3036 61.4242 32.2729 56.5496 31.0996 51.5015L56.1253 40.975C58.9132 45.3439 63.7747 47.3453 67.9353 45.5952C72.6548 43.61 74.5558 37.3568 72.1666 31.6767C71.1291 29.2103 69.4715 27.1807 67.4129 25.9355C67.9932 23.4924 67.7331 20.9629 66.6957 18.4966ZM64.7198 28.9155C66.5269 29.5628 68.058 31.1179 68.8753 33.0611C70.3529 36.5738 69.1878 40.4064 66.2691 41.6341C63.4126 42.8356 59.9211 41.1376 58.3815 37.651C57.9099 36.5299 56.8189 36.0213 55.8874 36.4131L28.0052 48.1412C27.0737 48.533 26.7679 49.7172 27.1459 50.7896C28.5299 54.2537 27.3955 57.9855 24.4768 59.2132C21.5582 60.4408 18.0039 58.5933 16.5263 55.0806C15.7089 53.1374 15.6682 50.9555 16.4693 49.2112C16.7468 48.6546 16.6816 47.9784 16.4301 47.3805C16.1786 46.7826 15.6787 46.2891 15.1489 46.0722C13.3418 45.4249 11.8107 43.8699 10.9933 41.9267C9.5158 38.4139 10.6809 34.5813 13.5996 33.3536C16.4561 32.1521 19.9476 33.8501 21.4872 37.3367C21.9588 38.4578 23.0498 38.9664 23.9812 38.5746L51.9877 26.7943C52.9191 26.4025 53.225 25.2183 52.847 24.1458C51.4629 20.6818 52.5974 16.95 55.516 15.7223C58.4347 14.4946 61.989 16.3421 63.4666 19.8548C64.284 21.798 64.3247 23.9799 63.5236 25.7243C63.2461 26.2808 63.3113 26.9571 63.5628 27.555C63.6901 28.2052 64.19 28.6986 64.7198 28.9155Z" fill="white"/>
<path d="M33.4265 21.9352C34.358 21.5433 34.7259 20.333 34.2543 19.212L32.0223 13.9055C31.5507 12.7844 30.4283 12.201 29.4968 12.5928C28.5654 12.9846 28.1974 14.195 28.669 15.316L30.901 20.6225C31.3726 21.7435 32.495 22.327 33.4265 21.9352Z" fill="white"/>
<path d="M40.2038 21.0197C40.5151 21.0647 40.7328 21.0611 40.9812 20.9566C41.6022 20.6954 42.0345 19.9858 42 19.2086L41.851 13.6418C41.8149 12.5134 40.9393 11.4743 39.9119 11.2907C38.916 11.1819 38.1111 12.0482 38.0851 13.2027L38.2341 18.7696C38.2702 19.8979 39.1458 20.937 40.2038 21.0197Z" fill="white"/>
<path d="M25.4504 26.082C26.0752 26.6988 26.7913 26.8374 27.4123 26.5762C27.6607 26.4717 27.8776 26.2925 28.0011 26.0646C28.6197 25.2766 28.4893 23.9241 27.6766 23.0345L23.8017 19.0348C23.0204 18.22 21.8382 18.1895 21.1574 19.0036C20.5388 19.7916 20.6692 21.1441 21.4819 22.0337L25.4504 26.082Z" fill="white"/>
<path d="M46.5044 53.0264C45.5729 53.4182 45.205 54.6285 45.6766 55.7496L47.9086 61.0561C48.3802 62.1771 49.5026 62.7606 50.4341 62.3687C51.3656 61.9769 51.7335 60.7666 51.2619 59.6456L49.0299 54.3391C48.5583 53.218 47.4359 52.6346 46.5044 53.0264Z" fill="white"/>
<path d="M39.727 53.9421C38.7311 53.8332 37.9261 54.6996 37.9001 55.854L38.0491 61.4209C38.0852 62.5492 38.9608 63.5883 39.9882 63.7719C40.2994 63.8169 40.5172 63.8133 40.7656 63.7088C41.3865 63.4476 41.8189 62.7379 41.7844 61.9608L41.6353 56.3939C41.6606 55.0639 40.785 54.0248 39.727 53.9421Z" fill="white"/>
<path d="M54.4806 48.8798C53.6993 48.0649 52.5171 48.0344 51.8363 48.8485C51.2177 49.6365 51.3481 50.9891 52.1608 51.8787L56.0357 55.8783C56.6606 56.4951 57.3767 56.6337 57.9976 56.3725C58.246 56.268 58.463 56.0888 58.5864 55.861C59.2051 55.073 59.0747 53.7204 58.262 52.8308L54.4806 48.8798Z" fill="white"/>
</svg>
