<svg width="32" height="32" viewBox="0 0 32 32" fill="none" xmlns="http://www.w3.org/2000/svg">
<path d="M16 29.3333C14.1777 29.3333 12.4555 28.9831 10.8333 28.2826C9.21107 27.5831 7.79463 26.6275 6.58396 25.416C5.3724 24.2053 4.41685 22.7888 3.71729 21.1666C3.01685 19.5444 2.66663 17.8222 2.66663 16C2.66663 14.1555 3.01685 12.428 3.71729 10.8173C4.41685 9.20574 5.3724 7.79463 6.58396 6.58396C7.79463 5.3724 9.21107 4.4164 10.8333 3.71596C12.4555 3.0164 14.1777 2.66663 16 2.66663C17.8444 2.66663 19.572 3.0164 21.1826 3.71596C22.7942 4.4164 24.2053 5.3724 25.416 6.58396C26.6275 7.79463 27.5831 9.20574 28.2826 10.8173C28.9831 12.428 29.3333 14.1555 29.3333 16V17.9333C29.3333 19.2444 28.8835 20.3608 27.984 21.2826C27.0835 22.2053 25.9777 22.6666 24.6666 22.6666C23.8666 22.6666 23.1222 22.4888 22.4333 22.1333C21.7444 21.7777 21.1777 21.3111 20.7333 20.7333C20.1333 21.3333 19.428 21.8057 18.6173 22.1506C17.8057 22.4946 16.9333 22.6666 16 22.6666C14.1555 22.6666 12.5835 22.0164 11.284 20.716C9.98351 19.4164 9.33329 17.8444 9.33329 16C9.33329 14.1555 9.98351 12.5831 11.284 11.2826C12.5835 9.98307 14.1555 9.33329 16 9.33329C17.8444 9.33329 19.4168 9.98307 20.7173 11.2826C22.0168 12.5831 22.6666 14.1555 22.6666 16V17.9333C22.6666 18.5777 22.8666 19.0831 23.2666 19.4493C23.6666 19.8164 24.1333 20 24.6666 20C25.2 20 25.6666 19.8164 26.0666 19.4493C26.4666 19.0831 26.6666 18.5777 26.6666 17.9333V16C26.6666 13.0888 25.6164 10.5831 23.516 8.48263C21.4164 6.38307 18.9111 5.33329 16 5.33329C13.0888 5.33329 10.5831 6.38307 8.48263 8.48263C6.38307 10.5831 5.33329 13.0888 5.33329 16C5.33329 18.9111 6.38307 21.4164 8.48263 23.516C10.5831 25.6164 13.0888 26.6666 16 26.6666H22.6666V29.3333H16ZM16 20C17.1111 20 18.0555 19.6111 18.8333 18.8333C19.6111 18.0555 20 17.1111 20 16C20 14.8888 19.6111 13.9444 18.8333 13.1666C18.0555 12.3888 17.1111 12 16 12C14.8888 12 13.9444 12.3888 13.1666 13.1666C12.3888 13.9444 12 14.8888 12 16C12 17.1111 12.3888 18.0555 13.1666 18.8333C13.9444 19.6111 14.8888 20 16 20Z" fill="#FF9F0E"/>
</svg>
