<svg width="76" height="76" viewBox="0 0 76 76" fill="none" xmlns="http://www.w3.org/2000/svg">
<path d="M50.9233 36.6272C55.562 42.2061 63.3227 34.0649 63.3203 28.2269C68.615 18.7569 58.691 12.4737 52.9544 21.2734C47.2154 24.2351 44.2993 35.3292 50.9233 36.6272ZM52.2361 34.9154C46.054 34.2878 49.8472 24.5677 53.7099 22.4059L53.8957 21.4578C58.8599 13.6743 66.5879 19.1265 61.6236 26.91L61.4378 27.8581C61.6606 32.5717 55.3815 40.2018 51.2948 34.731L52.2361 34.9154Z" fill="white"/>
<path d="M33.669 26.0264C38.3028 31.6303 46.2481 22.5473 46.2518 16.6781C51.5575 7.15182 41.5579 1.25448 35.7002 10.6726C29.9568 13.6562 27.0451 24.7285 33.669 26.0264ZM34.9818 24.3146C28.7991 23.6902 32.5898 13.9826 36.4556 11.8051L36.6414 10.857C41.6148 3.02662 49.3428 8.47883 44.3693 16.3092C44.5872 21.0479 38.1224 29.626 34.0406 24.1302L34.9818 24.3146Z" fill="white"/>
<path d="M56.781 57.1959C61.1057 61.5231 68.799 57.4745 67.6794 51.4554C71.3161 44.6285 60.9302 38.6554 56.1866 45.2655C50.658 47.0821 51.3556 55.5528 56.781 57.1959ZM58.0938 55.4841L57.1525 55.2997C52.8341 53.8735 52.7393 47.3144 56.9421 46.398L57.8833 46.5825C61.1916 41.431 69.1053 45.9352 65.797 51.0866L65.6112 52.0347C66.5056 56.2697 61.2352 59.984 57.908 56.4322L58.0938 55.4841Z" fill="white"/>
<path d="M12.6851 31.1783C17.0098 35.5056 24.7031 31.457 23.5836 25.4379C27.2202 18.6109 16.8344 12.6379 12.0907 19.248C6.56215 21.0645 7.2597 29.5353 12.6851 31.1783ZM13.9979 29.4666L13.0567 29.2822C8.73822 27.856 8.64345 21.2969 12.8462 20.3805L13.7874 20.5649C17.0957 15.4135 25.0095 19.9176 21.7011 25.0691L21.5153 26.0172C22.4097 30.2522 17.1393 33.9665 13.8121 30.4147L13.9979 29.4666Z" fill="white"/>
<path d="M47.5614 53.9601C56.5331 37.6878 29.6473 21.1874 19.6715 36.6814C0.540696 42.8204 10.1779 57.1522 21.9996 64.7032C33.9311 71.6941 51.1798 73.8627 47.5614 53.9601ZM45.679 53.5913C49.0696 71.7044 34.13 69.7641 23.3124 62.9915C12.4948 56.2188 2.334 44.5591 20.2412 38.762L20.427 37.8139C29.6263 23.331 53.7645 38.8901 45.679 53.5913Z" fill="white"/>
</svg>
