<svg width="32" height="32" viewBox="0 0 32 32" fill="none" xmlns="http://www.w3.org/2000/svg">
<path d="M11.3838 9.71427C11.3838 8.58911 11.83 7.51004 12.6243 6.71443C13.4186 5.91882 14.4958 5.47185 15.6191 5.47185C16.7424 5.47185 17.8196 5.91882 18.6139 6.71443C19.4082 7.51004 19.8544 8.58911 19.8544 9.71427C19.8544 10.8394 19.4082 11.9185 18.6139 12.7141C17.8196 13.5097 16.7424 13.9567 15.6191 13.9567C14.4958 13.9567 13.4186 13.5097 12.6243 12.7141C11.83 11.9185 11.3838 10.8394 11.3838 9.71427ZM15.6191 3.04761C13.8539 3.04761 12.1611 3.74999 10.913 5.00023C9.66482 6.25047 8.96363 7.94616 8.96363 9.71427C8.96363 11.4824 9.66482 13.1781 10.913 14.4283C12.1611 15.6786 13.8539 16.3809 15.6191 16.3809C17.3842 16.3809 19.0771 15.6786 20.3252 14.4283C21.5734 13.1781 22.2745 11.4824 22.2745 9.71427C22.2745 7.94616 21.5734 6.25047 20.3252 5.00023C19.0771 3.74999 17.3842 3.04761 15.6191 3.04761ZM5.33337 22.4415C5.33337 21.4771 5.71585 20.5522 6.39665 19.8702C7.07745 19.1883 8.00082 18.8052 8.96363 18.8052H22.2745C23.2374 18.8052 24.1607 19.1883 24.8415 19.8702C25.5223 20.5522 25.9048 21.4771 25.9048 22.4415V22.7155C25.9024 22.8286 25.8944 22.9414 25.8806 23.0537C25.8564 23.2634 25.8116 23.5482 25.7233 23.8852C25.4908 24.7741 25.0794 25.6061 24.5144 26.33C23.0986 28.1506 20.4352 29.7143 15.6191 29.7143C10.803 29.7143 8.14077 28.1506 6.72376 26.33C6.1583 25.6062 5.74651 24.7742 5.51368 23.8852C5.42125 23.5286 5.3621 23.1642 5.337 22.7967C5.33583 22.7696 5.33503 22.7426 5.33458 22.7155V22.6876L5.33337 22.6779V22.4415ZM7.75354 22.6573V22.6719C7.77031 22.8757 7.80473 23.0776 7.8564 23.2755C7.96531 23.6973 8.18675 24.267 8.63206 24.8403C9.48517 25.9361 11.3596 27.29 15.6191 27.29C19.8786 27.29 21.7542 25.9361 22.6061 24.8415C22.9679 24.3777 23.2314 23.8448 23.3806 23.2755C23.4326 23.0777 23.4674 22.8757 23.4846 22.6719L23.4858 22.6573V22.4415C23.4858 22.1201 23.3584 21.8118 23.1314 21.5844C22.9045 21.3571 22.5967 21.2294 22.2758 21.2294H8.96363C8.64269 21.2294 8.3349 21.3571 8.10797 21.5844C7.88103 21.8118 7.75354 22.1201 7.75354 22.4415V22.6573Z" fill="#FF9F0E"/>
</svg>
