<svg width="80" height="80" viewBox="0 0 80 80" fill="none" xmlns="http://www.w3.org/2000/svg">
<path d="M30.7481 8.86306C15.8596 13.1546 2.08743 24.9679 5.98852 38.5018L11.7033 58.3278C15.6044 71.8618 33.5856 74.6509 48.4741 70.3593C63.3627 66.0677 77.1348 54.2545 73.2337 40.7205L67.4848 20.7758C63.6179 7.3606 45.6367 4.5715 30.7481 8.86306ZM31.0071 67.1648C22.22 66.3545 15.7946 62.549 14.3916 57.6815L11.2433 46.7594C15.4566 50.4311 21.4945 52.1624 28.0317 52.464C27.3872 55.0929 27.5991 58.5035 28.523 61.7089C29.1047 63.7271 29.9759 65.5333 31.0071 67.1648ZM18.1198 45.806C22.3976 40.4583 29.5154 35.9635 37.8659 33.5565C46.2165 31.1495 54.6346 31.1661 61.1025 33.4164C57.1104 38.296 50.32 42.9535 41.3221 45.5471C32.3585 48.2594 24.1309 47.9308 18.1198 45.806ZM70.5797 41.4856C72.7698 49.0835 63.6427 60.7152 47.0711 65.4919C43.5108 66.5181 40.1715 67.0949 36.9237 67.2595C34.7154 67.3818 32.2379 64.6242 31.1771 60.9439C30.5611 58.807 30.4667 56.7768 30.9623 55.091C31.3932 53.4238 32.3531 52.3756 33.5867 52.2772C36.6708 52.0311 39.7817 51.3916 42.7594 50.5333C53.9582 47.3053 64.5419 39.7542 67.3972 30.4447L70.5797 41.4856ZM63.552 29.7529C56.3841 26.29 46.367 25.8342 36.4629 28.6891C26.5588 31.5439 18.3211 37.2615 14.0961 44.0084C11.3097 42.3685 9.36119 40.2299 8.64257 37.7368C6.45248 30.1388 15.5795 18.5072 32.1511 13.7305C48.7228 8.95383 62.6749 14.0616 64.8307 21.5408C65.5493 24.0339 65.038 26.8815 63.552 29.7529Z" fill="white"/>
<path d="M36.5029 62.8806C37.3966 62.623 37.7382 61.0853 37.2657 59.4461C36.7932 57.807 35.6856 56.687 34.7918 56.9447C33.8981 57.2023 33.5565 58.7399 34.029 60.3791C34.5015 62.0183 35.6091 63.1382 36.5029 62.8806Z" fill="white"/>
<path d="M41.7879 61.9999C42.6817 61.7422 43.0232 60.2046 42.5507 58.5654C42.0782 56.9263 40.9707 55.8063 40.0769 56.0639C39.1831 56.3215 38.8416 57.8592 39.3141 59.4984C39.7865 61.1375 40.8941 62.2575 41.7879 61.9999Z" fill="white"/>
<path d="M47.035 60.7448C47.9287 60.4872 48.2703 58.9496 47.7978 57.3104C47.3253 55.6712 46.2177 54.5513 45.3239 54.8089C44.4302 55.0665 44.0886 56.6042 44.5611 58.2434C45.0336 59.8825 46.1412 61.0025 47.035 60.7448Z" fill="white"/>
<path d="M52.0804 59.0331C52.9741 58.7754 53.3157 57.2378 52.8432 55.5986C52.3707 53.9595 51.2631 52.8395 50.3694 53.0971C49.4756 53.3548 49.1341 54.8924 49.6065 56.5316C50.079 58.1707 51.1866 59.2907 52.0804 59.0331Z" fill="white"/>
</svg>
